<svg aria-hidden="true" style="width:0;height:0;position:absolute;overflow:hidden" xmlns="http://www.w3.org/2000/svg"><defs><symbol id="icon-location" viewBox="0 0 16 16"><path d="M8 1.607c-2.21 0-4 1.783-4 3.992 0 3.819 4 8.8 4 8.8s4-4.982 4-8.8a3.993 3.993 0 0 0-4-3.992zm0 6.201a2.16 2.16 0 1 1 .001-4.319A2.16 2.16 0 0 1 8 7.808z"/></symbol><symbol id="icon-mobile-phone" viewBox="0 0 16 16"><path d="M10.5 1.333a1.503 1.503 0 0 1 1.5 1.5v10.333a1.503 1.503 0 0 1-1.5 1.5h-5a1.503 1.503 0 0 1-1.5-1.5V2.833a1.503 1.503 0 0 1 1.5-1.5h5zm0 1h-5a.498.498 0 0 0-.5.5v10.333a.5.5 0 0 0 .5.5h5a.498.498 0 0 0 .5-.5V2.833a.498.498 0 0 0-.5-.5zm-1.667 9.334a.5.5 0 1 1 .002 1l-1.667.003a.5.5 0 1 1-.002-1l1.667-.003z"/></symbol></defs></svg>